solid Visualization Toolkit generated SLA File
 facet normal -1 0 0
  outer loop
   vertex -0.5 0.5 0.049999963492155075
   vertex -0.5 0.5 -0.050000037997961044
   vertex -0.5 -0.5 -0.049999963492155075
  endloop
 endfacet
 facet normal -1 0 0
  outer loop
   vertex -0.5 0.5 0.049999963492155075
   vertex -0.5 -0.5 -0.049999963492155075
   vertex -0.5 -0.5 0.050000037997961044
  endloop
 endfacet
 facet normal 1 0 0
  outer loop
   vertex 0.5 0.5 0.049999963492155075
   vertex 0.5 -0.5 0.050000037997961044
   vertex 0.5 -0.5 -0.049999963492155075
  endloop
 endfacet
 facet normal 1 -0 0
  outer loop
   vertex 0.5 0.5 0.049999963492155075
   vertex 0.5 -0.5 -0.049999963492155075
   vertex 0.5 0.5 -0.050000037997961044
  endloop
 endfacet
 facet normal 0 1 0
  outer loop
   vertex -0.5 0.5 0.049999963492155075
   vertex 0.5 0.5 0.049999963492155075
   vertex 0.5 0.5 -0.050000037997961044
  endloop
 endfacet
 facet normal 0 1 0
  outer loop
   vertex -0.5 0.5 0.049999963492155075
   vertex 0.5 0.5 -0.050000037997961044
   vertex -0.5 0.5 -0.050000037997961044
  endloop
 endfacet
 facet normal 0 -1 0
  outer loop
   vertex -0.5 -0.5 0.050000037997961044
   vertex -0.5 -0.5 -0.049999963492155075
   vertex 0.5 -0.5 -0.049999963492155075
  endloop
 endfacet
 facet normal 0 -1 0
  outer loop
   vertex -0.5 -0.5 0.050000037997961044
   vertex 0.5 -0.5 -0.049999963492155075
   vertex 0.5 -0.5 0.050000037997961044
  endloop
 endfacet
 facet normal -0 7.4505805969238083e-08 0.99999999999999734
  outer loop
   vertex -0.5 0.5 0.049999963492155075
   vertex -0.5 -0.5 0.050000037997961044
   vertex 0.5 -0.5 0.050000037997961044
  endloop
 endfacet
 facet normal 0 7.4505805969238083e-08 0.99999999999999734
  outer loop
   vertex -0.5 0.5 0.049999963492155075
   vertex 0.5 -0.5 0.050000037997961044
   vertex 0.5 0.5 0.049999963492155075
  endloop
 endfacet
 facet normal -0 -7.4505805969238083e-08 -0.99999999999999734
  outer loop
   vertex 0.5 0.5 -0.050000037997961044
   vertex 0.5 -0.5 -0.049999963492155075
   vertex -0.5 -0.5 -0.049999963492155075
  endloop
 endfacet
 facet normal 0 -7.4505805969238083e-08 -0.99999999999999734
  outer loop
   vertex 0.5 0.5 -0.050000037997961044
   vertex -0.5 -0.5 -0.049999963492155075
   vertex -0.5 0.5 -0.050000037997961044
  endloop
 endfacet
endsolid
